<svg width="96" height="96" xmlns="http://www.w3.org/2000/svg" xmlns:xlink="http://www.w3.org/1999/xlink" xml:space="preserve" overflow="hidden"><g transform="translate(-592 -312)"><g><path d="M660.8 377.9 684.2 363 676.29 360.322C675.79 360.143 675.529 359.592 675.708 359.092 675.713 359.08 675.717 359.068 675.722 359.056L681.4 345.716 667.088 348.8C666.843 348.853 666.586 348.807 666.375 348.67 666.142 348.513 665.988 348.264 665.949 347.986L664.97 339.656 654.3 351.49C654.219 351.58 654.104 351.635 653.983 351.641 653.861 351.648 653.741 351.606 653.651 351.523 653.534 351.416 653.479 351.255 653.508 351.099L658.22 325.662 648.791 331.953C648.356 332.242 647.77 332.125 647.479 331.692 647.449 331.645 647.422 331.596 647.399 331.545L640.1 314.872 632.8 331.545C632.588 332.023 632.031 332.24 631.552 332.031 631.502 332.009 631.454 331.983 631.409 331.953L621.975 325.664 626.7 351.1C626.746 351.349 626.581 351.589 626.332 351.635 626.332 351.635 626.331 351.635 626.331 351.635 626.174 351.666 626.013 351.611 625.907 351.491L615.234 339.654 614.254 347.984C614.18 348.512 613.693 348.88 613.165 348.806 613.148 348.804 613.132 348.801 613.116 348.798L598.8 345.716 604.482 359.055C604.58 359.286 604.583 359.546 604.489 359.779 604.381 360.033 604.172 360.23 603.913 360.322L596 363 619.411 377.9C619.795 378.144 619.951 378.627 619.782 379.049L615.494 389.769 639.1 384.327 639.1 400.367C639.1 400.919 639.548 401.367 640.1 401.367 640.652 401.367 641.1 400.919 641.1 400.367L641.1 375.9 659.667 363.255C660.124 362.944 660.242 362.322 659.932 361.865 659.621 361.408 658.998 361.289 658.541 361.6L641.1 373.476 641.1 341.367C641.1 340.815 640.652 340.367 640.1 340.367 639.548 340.367 639.1 340.815 639.1 341.367L639.1 373.476 621.667 361.6C621.211 361.289 620.588 361.407 620.278 361.863 619.967 362.32 620.084 362.942 620.541 363.253L639.1 375.9 639.1 382.278 618.772 386.962 621.639 379.794C622.164 378.479 621.68 376.976 620.486 376.215L600.6 363.556 604.561 362.215C604.631 362.191 604.699 362.165 604.767 362.136 606.263 361.497 606.959 359.768 606.324 358.271L602.154 348.484 612.704 350.754C612.793 350.773 612.882 350.788 612.975 350.799 614.59 350.989 616.054 349.833 616.244 348.218 616.244 348.218 616.244 348.217 616.244 348.217L616.708 344.272 624.42 352.829C624.995 353.46 625.853 353.751 626.693 353.601 628.028 353.353 628.911 352.071 628.665 350.735L624.815 329.953 630.315 333.617C630.458 333.713 630.61 333.795 630.768 333.864 632.258 334.514 633.993 333.835 634.647 332.347L640.1 319.861 645.565 332.348C646.214 333.838 647.948 334.519 649.437 333.87 649.599 333.8 649.754 333.715 649.9 333.617L655.389 329.954 651.542 350.735C651.39 351.575 651.681 352.434 652.313 353.008 653.321 353.918 654.875 353.838 655.785 352.831 655.785 352.83 655.786 352.829 655.786 352.829L663.5 344.273 663.964 348.22C663.975 348.31 663.99 348.399 664.01 348.493 664.353 350.083 665.919 351.095 667.51 350.753L678.053 348.484 673.885 358.269C673.854 358.339 673.827 358.41 673.803 358.483 673.284 360.024 674.111 361.693 675.65 362.216L679.607 363.556 659.721 376.215C658.528 376.977 658.044 378.479 658.568 379.794L661.436 386.962 644.386 383.027C643.848 382.903 643.311 383.238 643.187 383.776 643.062 384.315 643.398 384.852 643.936 384.976L664.713 389.776 660.426 379.052C660.256 378.628 660.414 378.143 660.8 377.9Z" stroke="#5600B4" stroke-width="1" stroke-linecap="butt" stroke-linejoin="miter" stroke-miterlimit="4" stroke-opacity="1" fill="#5600B4" fill-rule="nonzero" fill-opacity="1"/></g></g></svg>